<?xml version="1.0" standalone="no"?>
<!DOCTYPE svg PUBLIC "-//W3C//DTD SVG 20010904//EN"
 "http://www.w3.org/TR/2001/REC-SVG-20010904/DTD/svg10.dtd">
<svg version="1.0" xmlns="http://www.w3.org/2000/svg"
 width="259.000000pt" height="194.000000pt" viewBox="0 0 259.000000 194.000000"
 preserveAspectRatio="xMidYMid meet">
<metadata>
Created by potrace 1.16, written by Peter Selinger 2001-2019
</metadata>
<g transform="translate(0.000000,194.000000) scale(0.100000,-0.100000)"
fill="#000000" stroke="none">
<path d="M1280 1789 c-94 -15 -332 -69 -397 -90 -34 -11 -66 -26 -73 -33 -6
-8 6 -5 30 6 22 11 111 34 198 52 86 17 159 33 162 36 11 11 168 12 188 1 11
-6 23 -25 27 -42 4 -17 13 -33 21 -36 18 -7 18 -21 -1 -39 -17 -17 -20 -55 -6
-69 11 -11 15 -45 12 -90 -2 -25 -4 -27 -10 -10 -7 17 -8 17 -15 -8 -3 -16 -4
-32 -1 -36 3 -5 6 -60 8 -123 l4 -115 -201 -7 c-111 -3 -233 -9 -273 -12 -68
-6 -72 -8 -75 -33 -3 -25 -7 -26 -76 -33 -41 -4 -81 -4 -90 1 -14 8 -121 -2
-126 -11 -13 -21 -25 -109 -18 -129 5 -13 7 -30 5 -36 -3 -7 7 -18 21 -24 25
-12 31 -30 29 -86 -1 -9 4 -10 19 -2 13 7 18 7 14 1 -3 -6 -2 -13 4 -17 5 -3
10 0 10 7 0 7 8 -3 16 -22 9 -19 19 -42 23 -50 5 -10 30 -17 70 -21 49 -5 68
-12 91 -34 17 -17 26 -33 23 -43 -4 -9 -2 -13 4 -9 12 8 26 -20 17 -34 -3 -6
0 -16 6 -24 16 -19 11 -19 -33 0 -43 18 -97 18 -189 2 l-67 -12 -31 -59 c-55
-102 -51 -199 10 -277 21 -26 26 -39 18 -47 -27 -27 93 -27 235 0 64 12 76 28
21 28 -36 0 -36 0 -20 22 29 41 47 91 53 151 5 48 9 57 22 51 9 -3 115 -8 235
-10 202 -4 221 -5 238 -24 23 -24 23 -26 -2 -33 -21 -5 -28 -27 -9 -27 5 0 7
5 3 12 -4 7 -3 8 4 4 23 -14 12 -26 -43 -51 -30 -13 -55 -28 -55 -34 0 -6 -22
-7 -55 -4 -51 5 -55 4 -55 -15 0 -21 4 -21 98 -18 168 7 289 23 572 77 58 11
214 18 199 8 -19 -11 30 -22 101 -22 76 0 152 20 128 34 -14 8 -14 15 1 64 14
49 19 55 44 55 30 0 31 2 17 84 -5 35 -16 64 -25 68 -8 5 -15 18 -15 29 0 26
-21 33 -67 22 -31 -7 -38 -14 -50 -50 -11 -31 -20 -42 -39 -46 -16 -3 -28 1
-31 10 -9 23 3 98 21 133 9 18 14 35 12 37 -11 11 -47 -91 -49 -138 -1 -30 -7
-60 -14 -66 -14 -15 -43 -17 -43 -3 0 5 -17 7 -37 5 -226 -27 -234 -27 -249
-8 -9 12 -13 49 -14 119 0 100 0 102 -25 108 -14 4 -25 11 -25 16 0 6 -6 10
-14 10 -8 0 -17 7 -20 16 -4 10 -2 13 7 8 8 -5 7 -2 -2 9 -7 9 -20 17 -28 17
-8 0 -25 12 -38 26 -23 24 -29 26 -80 19 -41 -5 -55 -3 -55 6 0 7 -3 9 -7 5
-5 -4 -11 -35 -14 -69 -4 -38 -7 9 -7 120 -1 103 2 184 7 188 6 3 9 -32 8 -86
l-2 -91 145 2 c80 2 157 3 173 2 25 -1 27 2 27 38 l0 39 -72 -5 c-40 -3 -88
-7 -105 -9 -18 -2 -33 0 -33 6 0 5 30 9 68 9 91 0 142 10 142 26 0 8 5 14 10
14 6 0 10 -24 10 -54 0 -30 4 -57 10 -61 8 -5 4 -284 -5 -312 -3 -7 0 -13 5
-13 6 0 10 -6 10 -13 0 -24 35 -47 71 -47 29 0 41 8 72 44 l37 45 4 158 c5
196 3 179 22 198 15 14 17 14 28 -1 11 -14 22 -15 112 -4 54 7 100 13 102 15
2 2 -1 21 -7 42 -6 21 -20 115 -30 207 -23 197 -35 223 -113 251 -26 9 -46 20
-44 24 3 4 -3 12 -13 18 -15 10 -17 8 -16 -17 1 -20 -2 -27 -12 -23 -7 3 -13
0 -13 -6 0 -6 5 -11 12 -11 6 0 8 -3 5 -6 -4 -4 -14 -1 -23 7 -14 11 -14 14
-1 24 12 8 -3 15 -66 29 -45 10 -105 25 -134 32 -28 8 -59 14 -70 13 -32 -1
52 -27 125 -38 38 -6 80 -15 93 -20 23 -9 23 -10 -6 -11 l-30 -1 25 -15 c17
-10 18 -13 5 -8 -142 48 -222 78 -230 84 -5 4 -25 11 -42 15 -18 3 -33 11 -33
16 0 6 -9 7 -21 4 -14 -5 -19 -3 -15 3 4 7 -8 14 -29 18 -19 3 -35 10 -35 16
0 5 -4 6 -10 3 -5 -3 -10 -2 -10 4 0 14 31 19 60 8 14 -5 50 -11 80 -13 30 -2
66 -6 80 -9 l25 -5 -25 14 c-14 7 -92 30 -173 50 -81 20 -160 42 -175 50 -40
20 -90 25 -152 15z m784 -515 c11 -85 13 -82 -61 -88 -38 -4 -92 -9 -120 -11
l-53 -5 0 69 0 70 38 4 c20 2 71 4 113 5 l76 2 7 -46z m-647 -236 c-4 -72 -10
-134 -15 -137 -5 -3 -12 -13 -15 -21 -3 -8 -3 8 0 36 4 33 1 54 -6 58 -6 4
-11 19 -11 34 0 21 -2 24 -10 12 -7 -11 -9 -2 -10 30 -1 75 -2 81 -26 97 -15
10 -34 12 -54 8 -19 -4 -30 -3 -30 4 0 7 33 11 92 11 l91 0 -6 -132z m-271
-161 c-11 -7 -30 -22 -43 -34 -22 -21 -23 -29 -22 -139 0 -64 5 -129 10 -143
8 -20 7 -28 -7 -38 -25 -18 -57 5 -66 48 -11 55 -21 225 -14 252 4 19 19 31
59 46 28 11 63 20 77 20 24 0 24 -1 6 -12z m330 -365 c-3 -4 40 -7 94 -5 60 2
101 -1 105 -7 4 -6 -6 -10 -24 -10 -17 0 -31 -2 -31 -4 0 -2 -3 -12 -6 -21 -6
-14 3 -16 67 -14 97 2 129 8 129 24 0 7 7 16 15 19 19 7 135 -4 135 -13 0 -4
34 -13 75 -20 69 -11 75 -14 81 -39 3 -15 10 -40 15 -56 5 -16 9 -31 9 -32 0
-8 -49 -3 -54 5 -3 4 -49 11 -103 15 -147 10 -287 27 -298 37 -5 5 -38 9 -73
9 -59 0 -63 1 -51 17 13 15 10 16 -37 9 -45 -5 -53 -4 -70 16 -15 18 -15 20
-2 9 18 -13 131 -11 145 3 3 3 0 6 -8 6 -12 0 -11 2 1 10 11 8 -9 10 -68 9
-89 -2 -108 5 -78 27 22 15 40 19 32 6z"/>
<path d="M1240 1701 c0 -5 -10 -7 -22 -3 -13 3 -19 1 -15 -5 4 -6 -1 -34 -11
-64 -12 -33 -21 -48 -26 -41 -5 9 -14 4 -29 -15 -12 -15 -32 -39 -44 -53 -12
-14 -39 -45 -60 -70 l-37 -45 45 43 c25 23 50 42 57 42 7 0 12 3 12 8 0 4 14
23 31 42 27 32 30 33 23 10 -4 -14 -10 -26 -15 -28 -4 -2 -5 -10 -2 -19 4 -10
2 -14 -4 -10 -7 5 -9 -1 -5 -15 3 -14 1 -19 -6 -14 -8 5 -10 2 -6 -8 3 -9 1
-16 -5 -16 -6 0 -8 -6 -5 -14 3 -7 -2 -21 -11 -30 -9 -9 -13 -16 -9 -16 3 0 1
-7 -6 -15 -12 -14 -7 -35 5 -23 3 3 31 72 61 154 69 184 77 198 112 189 15 -4
28 -8 30 -10 4 -4 -48 -153 -65 -184 -17 -34 -16 -50 2 -57 11 -4 15 -21 15
-59 l0 -52 -37 -7 c-59 -9 -123 -7 -123 5 0 6 -6 4 -14 -4 -14 -13 -174 -33
-184 -22 -3 2 1 13 8 22 7 10 -2 2 -19 -17 -17 -19 -31 -30 -31 -24 0 5 -18 8
-41 6 l-41 -4 7 68 c9 90 55 200 81 197 11 -2 42 -5 69 -9 l50 -6 21 54 22 53
90 19 c50 10 89 23 86 27 -8 13 -54 11 -54 -2 0 -6 -8 -8 -19 -4 -11 3 -22 1
-26 -4 -3 -6 -20 -8 -37 -4 -20 4 -29 2 -25 -4 4 -6 -3 -9 -16 -6 -22 3 -176
-27 -211 -42 -15 -6 -17 -5 -11 5 5 9 4 11 -3 6 -7 -4 -12 -23 -12 -41 0 -35
-41 -158 -61 -182 -6 -7 -9 -13 -6 -13 3 0 -7 -32 -24 -72 -16 -39 -28 -73
-26 -75 2 -2 39 2 82 8 68 9 79 9 87 -5 11 -20 29 -21 22 -1 -4 9 2 16 18 19
53 11 152 19 316 25 169 6 174 7 193 31 16 21 19 35 15 85 -3 33 -9 105 -14
159 -8 93 -10 101 -38 122 -29 24 -104 34 -104 15z"/>
</g>
</svg>
