<?xml version="1.0" standalone="no"?>
<!DOCTYPE svg PUBLIC "-//W3C//DTD SVG 20010904//EN"
 "http://www.w3.org/TR/2001/REC-SVG-20010904/DTD/svg10.dtd">
<svg version="1.0" xmlns="http://www.w3.org/2000/svg"
 width="300.000000pt" height="168.000000pt" viewBox="0 0 300.000000 168.000000"
 preserveAspectRatio="xMidYMid meet">
<metadata>
Created by potrace 1.16, written by Peter Selinger 2001-2019
</metadata>
<g transform="translate(0.000000,168.000000) scale(0.100000,-0.100000)"
fill="#000000" stroke="none">
<path d="M1886 1351 c-4 -6 -18 -11 -32 -11 -14 0 -35 -5 -46 -11 -17 -9 -18
-13 -7 -20 8 -5 24 -9 37 -9 12 0 22 -6 22 -14 0 -8 16 -20 35 -26 19 -6 37
-20 40 -30 3 -10 12 -21 20 -24 8 -3 15 -12 15 -21 0 -8 4 -15 8 -15 16 0 21
13 12 30 -8 14 -5 19 12 23 15 4 18 3 10 -5 -8 -8 -4 -15 14 -25 24 -12 28
-11 45 11 11 14 28 28 39 31 40 13 35 107 -5 101 -24 -4 -56 -39 -52 -57 3
-12 0 -16 -9 -12 -8 3 -14 9 -14 15 0 5 -4 7 -8 4 -4 -2 -6 10 -4 29 6 54 -33
60 -41 5 -4 -23 -27 -42 -27 -22 0 6 -3 18 -7 28 -5 14 -3 16 13 10 13 -5 16
-4 9 3 -16 16 -72 25 -79 12z"/>
<path d="M1474 1160 c-38 -39 -68 -77 -68 -85 1 -8 -3 -13 -8 -12 -21 4 -18
-22 2 -28 20 -6 18 -8 -14 -26 -70 -37 -122 -42 -200 -19 -105 31 -175 61
-185 78 -14 25 -129 63 -266 88 -71 12 -137 23 -145 23 -27 1 22 -29 68 -41
23 -6 41 -13 38 -15 -2 -3 -32 3 -65 13 -34 9 -64 15 -66 12 -3 -3 17 -26 44
-51 l49 -46 -71 -15 c-40 -9 -98 -20 -129 -25 -32 -6 -69 -18 -83 -27 -14 -9
-25 -13 -25 -9 0 4 -6 2 -14 -4 -10 -8 -16 -9 -21 -1 -3 5 -15 10 -26 10 -27
0 -19 -24 9 -28 12 -2 22 -5 22 -8 0 -3 -43 -96 -68 -147 -2 -5 4 -4 15 1 11
6 25 30 32 54 31 104 48 115 206 141 214 35 197 37 321 -28 60 -32 137 -78
172 -102 35 -23 69 -43 77 -43 23 0 17 -22 -17 -59 -27 -31 -31 -32 -40 -17
-11 19 -82 55 -110 56 -10 0 -18 -7 -18 -15 0 -8 -7 -15 -16 -15 -11 0 1 -18
35 -52 50 -52 60 -68 42 -68 -5 0 -12 9 -16 20 -3 11 -20 29 -37 42 -27 19
-31 19 -25 4 6 -14 -3 -12 -46 12 -62 36 -110 47 -134 33 -14 -8 -15 -10 -3
-11 8 0 0 -9 -19 -21 -18 -11 -45 -19 -59 -17 -24 3 -23 4 16 23 36 17 55 35
37 35 -9 0 -58 -32 -85 -55 -25 -21 -80 -49 -80 -40 0 3 16 23 35 44 29 32 32
38 15 34 -11 -3 -20 -10 -20 -15 0 -5 -5 -6 -12 -2 -6 4 -8 3 -5 -4 7 -10 -71
-117 -79 -109 -3 2 0 17 6 33 7 19 8 25 1 19 -6 -6 -17 -28 -24 -50 -17 -48
-51 -63 -42 -18 5 21 4 24 -4 13 -6 -8 -11 -25 -11 -37 0 -35 -11 -57 -21 -42
-17 28 -34 -45 -34 -146 1 -86 4 -108 26 -155 33 -71 102 -141 175 -179 l59
-30 -45 -1 c-37 -1 -41 -3 -23 -10 25 -10 489 -17 498 -8 4 3 -41 9 -99 13
l-105 7 48 25 c105 52 198 171 204 259 l2 38 -54 -3 c-36 -2 -51 1 -46 8 3 6
1 11 -5 11 -6 0 -9 4 -5 10 3 5 12 7 20 4 8 -4 12 -10 9 -15 -3 -5 11 -9 30
-9 41 0 48 17 11 26 -31 8 -32 28 -4 48 20 13 23 12 46 -12 23 -25 23 -27 7
-39 -28 -21 -4 -37 37 -25 51 13 63 5 39 -25 -29 -37 -26 -69 9 -87 31 -17
126 -22 209 -12 44 5 52 4 52 -10 0 -14 8 -16 48 -11 26 4 76 9 112 13 35 4
71 13 78 21 18 18 36 17 28 -2 -4 -13 9 -15 89 -15 l95 0 20 40 c11 21 20 41
20 44 0 3 -19 10 -42 16 -69 17 -83 26 -85 51 -2 17 0 20 7 10 14 -24 81 13
101 55 9 19 12 31 5 26 -6 -5 -20 -6 -31 -1 -17 6 -17 8 -3 8 20 1 52 56 42
73 -5 8 -2 9 9 5 12 -4 25 5 44 28 16 19 47 49 71 67 43 32 52 48 29 48 -19 0
-57 38 -57 57 0 13 8 15 45 11 51 -6 58 5 17 26 -38 20 -60 46 -39 46 8 0 20
-7 27 -14 6 -8 27 -20 45 -26 22 -7 32 -16 30 -28 -1 -9 0 -12 2 -5 6 18 34
25 49 12 17 -14 18 -8 3 24 -6 14 -22 30 -35 36 -17 7 -22 15 -17 28 6 15 4
16 -9 5 -12 -10 -24 -8 -64 10 -32 15 -43 23 -32 26 10 2 25 -4 34 -12 18 -19
36 -12 28 9 -4 8 -10 13 -14 10 -4 -3 -14 3 -21 13 -12 15 -12 16 2 5 16 -13
29 -8 29 9 0 5 -5 6 -10 3 -6 -4 -9 -1 -8 5 5 19 -158 98 -250 121 -48 12 -91
26 -97 32 -7 7 -3 8 10 3 11 -4 38 -11 60 -15 22 -5 48 -12 58 -16 25 -11 22
17 -5 42 -26 22 -112 73 -125 73 -4 0 3 -9 17 -20 l25 -19 -42 9 c-22 6 -66
23 -95 39 l-55 30 -69 -69z m-649 -65 c88 -22 79 -19 150 -61 72 -42 360 -184
374 -184 6 0 8 -7 5 -15 -5 -12 -9 -12 -27 -1 -18 11 -36 12 -92 3 -38 -6 -72
-12 -75 -14 -3 -3 49 -55 115 -117 l119 -112 -60 -2 c-32 -1 -79 -2 -104 -3
-25 -1 -73 1 -108 4 -69 6 -69 7 -19 -49 10 -13 14 -24 9 -28 -12 -7 -23 5
-60 75 l-31 57 58 45 c32 25 72 48 89 52 27 6 33 3 47 -24 8 -17 19 -31 24
-31 5 0 33 -21 62 -46 30 -25 -2 8 -70 75 -120 117 -123 122 -127 168 l-4 48
13 -45 c14 -52 26 -56 117 -43 l55 8 -120 60 c-66 33 -124 58 -130 57 -5 -2
-7 0 -3 4 4 4 -18 19 -49 35 -30 15 -60 32 -66 38 -21 21 -29 11 -13 -14 26
-40 19 -39 -41 9 -32 24 -80 52 -108 60 -60 20 -26 15 70 -9z m-49 -449 c60
-28 119 -78 140 -118 23 -44 11 -44 -20 0 -77 112 -180 149 -313 112 -23 -7
-43 -16 -43 -21 0 -4 -9 -11 -21 -14 -19 -7 -20 -7 -2 -21 10 -7 42 -14 71
-14 57 0 70 -18 30 -38 -20 -10 -21 -12 -3 -9 11 1 25 12 31 25 11 23 26 20
17 -4 -3 -8 1 -14 11 -14 9 0 16 5 16 11 0 6 9 8 21 4 15 -5 19 -4 14 5 -4 6
8 4 26 -6 l34 -18 -30 -6 c-16 -4 -34 -3 -39 2 -16 13 -29 9 -22 -7 4 -10 -1
-15 -14 -15 -11 0 -25 -9 -32 -20 -7 -11 -18 -20 -25 -20 -7 0 -13 -9 -13 -20
0 -11 -9 -29 -20 -40 -24 -24 -26 -42 -4 -33 14 5 15 3 5 -16 -12 -22 -7 -41
10 -41 6 0 7 9 4 21 -5 15 -4 19 4 15 6 -4 11 -13 11 -20 0 -8 8 -20 17 -27 9
-8 14 -9 10 -2 -8 12 30 30 40 19 4 -3 -2 -6 -12 -6 -15 0 -16 -3 -7 -12 17
-17 51 -18 45 -1 -3 7 2 13 11 13 10 0 13 6 10 15 -4 10 0 15 11 15 10 0 13 4
9 13 -6 9 -4 9 7 2 20 -15 115 -19 123 -6 11 17 25 13 22 -6 -2 -13 -20 -22
-62 -31 -64 -14 -98 -34 -44 -25 18 2 44 9 57 14 50 19 56 4 21 -48 -28 -40
-36 -41 -66 -5 l-24 27 20 -30 c10 -16 17 -36 14 -44 -3 -10 0 -12 13 -7 32
12 -4 -23 -45 -44 -48 -24 -163 -46 -168 -31 -2 6 -11 11 -21 11 -9 0 -26 7
-38 15 -12 8 -28 12 -37 9 -10 -4 -16 -1 -16 9 0 8 -7 18 -16 21 -9 3 -14 13
-11 21 4 8 1 12 -6 10 -19 -7 -76 80 -87 133 -26 121 57 265 178 308 60 21
150 17 208 -10z"/>
<path d="M2061 1174 c-8 -19 -2 -41 37 -126 53 -117 115 -209 82 -124 -6 17
-6 26 0 26 6 0 10 -4 10 -10 0 -5 17 -10 38 -10 21 0 43 -5 50 -12 9 -9 12 -9
12 -1 0 7 -4 15 -10 18 -20 12 -10 26 10 15 11 -6 20 -8 20 -6 0 12 -61 101
-70 101 -4 0 -12 4 -17 9 -5 5 -3 6 5 2 6 -4 12 -3 12 2 0 20 -44 63 -91 89
-41 22 -47 28 -32 34 14 5 11 7 -14 11 -26 3 -33 0 -42 -18z"/>
<path d="M2005 1170 c-3 -5 -14 -10 -24 -10 -25 0 -44 -23 -30 -37 5 -5 11
-22 13 -36 1 -15 26 -53 57 -88 30 -33 58 -69 63 -78 5 -9 33 -46 62 -82 47
-59 51 -67 34 -72 -11 -3 -23 -1 -26 4 -3 5 -10 9 -15 9 -6 0 -3 -7 5 -16 25
-24 19 -39 -29 -78 -49 -41 -53 -40 -29 6 9 16 11 27 6 24 -6 -3 -18 -28 -28
-54 -10 -26 -23 -54 -29 -62 -7 -8 -20 -30 -29 -47 -15 -31 -14 -38 8 -34 5 1
5 -6 1 -16 -15 -38 -22 -130 -15 -180 18 -112 85 -205 190 -262 52 -29 53 -31
25 -32 l-30 -1 30 -8 c32 -8 345 -4 353 5 3 3 -19 5 -49 5 l-54 1 55 28 c104
54 181 162 196 272 7 54 0 64 -18 22 -8 -22 -12 -24 -15 -11 -2 9 1 26 7 37 7
14 7 21 0 21 -5 0 -10 10 -11 23 -2 93 -109 214 -222 251 -10 3 -15 11 -12 16
4 6 15 8 24 5 10 -3 18 0 18 7 0 7 2 20 4 28 3 12 -5 14 -41 12 -25 -2 -46 -8
-48 -13 -6 -16 -52 -9 -74 11 -31 29 -93 24 -81 -6 12 -32 -8 -10 -37 40 -38
68 -180 377 -180 394 0 14 -16 16 -25 2z m263 -502 c7 -18 27 -70 44 -115 16
-46 34 -83 39 -83 5 0 9 -7 9 -15 0 -21 60 -86 72 -79 5 4 7 17 4 30 -4 13 -3
23 1 22 11 -2 61 11 107 28 51 20 61 9 60 -64 0 -61 -32 -148 -64 -177 -18
-16 -20 -15 -46 27 -14 23 -36 53 -48 66 -17 19 -17 22 -3 16 9 -3 17 -3 17 1
0 10 -27 35 -39 35 -6 0 -11 5 -11 11 0 6 -7 3 -16 -5 -20 -21 -37 -11 -22 13
9 15 6 25 -16 54 -19 25 -33 34 -44 30 -15 -6 -15 -4 -4 10 10 12 11 20 2 34
-9 15 -10 14 -4 -7 6 -22 1 -20 -42 20 -57 52 -60 56 -40 63 9 4 17 -1 21 -12
3 -10 15 -27 28 -37 17 -15 19 -15 9 -2 -8 9 -11 25 -8 35 3 10 1 25 -5 33 -8
12 -9 9 -4 -10 6 -24 6 -24 -10 -5 -14 18 -14 21 0 32 15 10 15 14 1 42 -18
34 -19 41 -8 41 4 0 13 -15 20 -32z m-128 -243 c0 -3 -6 -14 -12 -25 -20 -32
2 -45 44 -27 l35 15 -23 -44 -24 -44 39 20 c21 10 51 21 66 24 23 4 26 2 22
-14 -3 -11 -1 -17 4 -14 5 3 12 -2 15 -10 7 -18 -31 -71 -41 -56 -3 5 -1 10 5
10 6 0 8 5 4 11 -4 8 -10 6 -17 -6 -6 -12 -5 -20 4 -26 11 -6 9 -12 -6 -29
-12 -13 -14 -19 -4 -15 8 4 28 24 45 45 27 34 34 37 44 25 10 -12 10 -15 0
-15 -9 0 -9 -4 -2 -12 6 -7 15 -29 21 -48 l11 -35 -6 40 c-11 77 -8 94 21 107
13 6 22 15 19 20 -3 5 -13 3 -22 -4 -15 -12 -16 -11 -3 5 11 14 17 15 28 5 22
-18 103 -125 103 -135 0 -13 -74 -53 -99 -53 -11 0 -21 -5 -21 -11 0 -5 4 -8
9 -4 5 3 12 1 16 -5 3 -5 -3 -10 -14 -10 -12 0 -21 6 -21 14 0 9 -7 12 -20 9
-11 -3 -17 -9 -14 -14 3 -5 11 -6 17 -3 9 5 9 4 1 -5 -9 -10 -25 -8 -74 8 -35
12 -69 21 -77 21 -7 0 -13 4 -13 10 0 5 -13 23 -30 40 -16 17 -30 38 -30 46 0
8 -4 13 -9 9 -6 -3 -15 3 -21 14 -8 16 -6 22 7 30 10 6 13 11 8 11 -6 0 -12
15 -13 32 -2 18 -7 37 -12 42 -6 6 -10 17 -9 26 0 10 3 9 9 -5 8 -20 9 -20 9
1 1 11 4 24 8 27 8 8 23 9 23 2z"/>
</g>
</svg>
