<?xml version="1.0" standalone="no"?>
<!DOCTYPE svg PUBLIC "-//W3C//DTD SVG 20010904//EN"
 "http://www.w3.org/TR/2001/REC-SVG-20010904/DTD/svg10.dtd">
<svg version="1.0" xmlns="http://www.w3.org/2000/svg"
 width="275.000000pt" height="183.000000pt" viewBox="0 0 275.000000 183.000000"
 preserveAspectRatio="xMidYMid meet">
<metadata>
Created by potrace 1.16, written by Peter Selinger 2001-2019
</metadata>
<g transform="translate(0.000000,183.000000) scale(0.100000,-0.100000)"
fill="#000000" stroke="none">
<path d="M889 1540 c-205 -11 -450 -72 -509 -127 -20 -18 -24 -31 -22 -68 1
-42 0 -45 -14 -31 -9 9 -32 16 -54 16 -21 0 -41 4 -44 9 -7 11 -97 -4 -135
-23 -38 -20 -58 -57 -69 -130 -8 -52 -7 -57 13 -70 22 -14 23 -13 38 27 9 23
21 60 27 82 16 61 41 74 124 64 38 -5 74 -13 80 -19 6 -6 1 -37 -17 -92 -56
-172 -93 -478 -64 -525 13 -22 19 -93 8 -93 -6 0 -11 -7 -11 -15 0 -8 6 -15
14 -15 8 0 16 -7 20 -15 4 -10 -1 -15 -15 -15 -14 0 -21 9 -26 33 l-7 32 -7
-35 c-12 -53 -1 -143 18 -157 10 -8 46 -13 83 -13 37 0 142 -3 234 -7 l168 -6
29 -31 29 -31 -43 -7 c-23 -3 -94 -11 -157 -18 -236 -24 -311 -55 -222 -93 96
-41 199 -51 369 -37 110 9 353 46 454 69 24 6 98 15 164 21 66 6 149 18 185
26 36 8 157 28 270 44 113 16 241 34 285 40 44 6 127 15 185 20 135 11 251 42
178 47 -39 3 -41 6 -33 41 5 24 11 30 33 29 98 -3 129 3 173 37 l44 33 -7 184
c-7 164 -20 304 -35 366 -2 12 -17 26 -31 31 -49 18 -266 82 -300 88 -22 5
-29 10 -21 15 13 7 -15 17 -111 38 -25 6 -108 31 -183 56 -76 25 -152 45 -170
45 -17 0 -106 23 -197 51 -522 159 -436 144 -721 129z m646 -1031 c33 -62 5
-199 -40 -199 -21 0 -62 43 -47 48 17 5 15 22 -3 22 -8 0 -15 9 -15 20 0 11 5
20 10 20 6 0 10 5 10 11 0 5 -4 7 -10 4 -6 -4 -10 5 -10 19 0 14 3 25 8 25 19
-3 25 2 12 11 -13 9 -11 14 13 35 32 28 52 24 72 -16z"/>
<path d="M1906 98 c-16 -52 -15 -57 18 -56 17 0 37 5 44 11 8 6 12 6 12 -2 0
-16 60 -14 66 3 3 8 12 12 21 9 12 -5 12 -7 1 -14 -9 -6 -7 -9 9 -9 12 0 27 8
32 17 9 16 10 16 11 2 0 -26 70 -24 70 1 0 10 3 25 6 34 4 11 1 16 -10 16 -9
0 -16 -7 -16 -15 0 -8 -4 -15 -10 -15 -5 0 -7 7 -4 15 4 9 0 15 -10 15 -9 0
-16 -7 -16 -15 0 -10 -9 -15 -27 -14 -24 2 -25 2 -5 6 32 6 27 23 -7 23 -20 0
-31 -6 -34 -17 -4 -16 -5 -16 -6 0 -2 28 -25 14 -32 -19 l-7 -29 -1 33 c-1 32
-14 43 -25 20 -5 -10 -7 -10 -12 0 -3 6 -19 12 -35 12 -16 0 -31 -6 -33 -12z"/>
</g>
</svg>
