<?xml version="1.0" standalone="no"?>
<!DOCTYPE svg PUBLIC "-//W3C//DTD SVG 20010904//EN"
 "http://www.w3.org/TR/2001/REC-SVG-20010904/DTD/svg10.dtd">
<svg version="1.0" xmlns="http://www.w3.org/2000/svg"
 width="225.000000pt" height="225.000000pt" viewBox="0 0 225.000000 225.000000"
 preserveAspectRatio="xMidYMid meet">
<metadata>
Created by potrace 1.16, written by Peter Selinger 2001-2019
</metadata>
<g transform="translate(0.000000,225.000000) scale(0.100000,-0.100000)"
fill="#000000" stroke="none">
<path d="M1609 1739 c-1 -8 -1 -20 0 -26 1 -7 -2 -13 -8 -13 -11 0 -50 -115
-53 -159 -2 -26 -6 -30 -25 -27 -12 3 -28 8 -35 12 -7 5 -134 9 -281 10 -225
1 -267 0 -263 -12 3 -8 1 -14 -4 -14 -6 0 -10 7 -10 16 0 13 -10 15 -67 9 -38
-3 -111 -15 -163 -25 -52 -10 -112 -21 -132 -24 -21 -4 -39 -10 -42 -14 -3 -5
32 -2 77 5 45 6 120 16 167 20 86 8 473 1 630 -12 175 -14 171 -14 179 9 13
33 43 247 37 253 -3 4 -7 0 -7 -8z"/>
<path d="M1636 1504 c-4 -49 -3 -91 3 -107 l11 -27 124 0 124 0 -11 30 -12 31
-8 -26 c-8 -24 -12 -25 -90 -25 -76 1 -80 2 -57 15 14 7 27 9 28 4 2 -5 26 -9
53 -9 35 0 48 3 43 12 -5 7 -3 8 6 3 9 -5 11 -4 6 3 -4 7 -15 12 -24 13 -9 0
-1 5 18 12 30 10 35 17 35 42 0 25 -4 30 -25 31 -33 0 -81 -16 -75 -26 2 -4
-8 -13 -23 -20 -37 -18 -52 -20 -52 -7 0 5 -3 8 -6 4 -3 -3 -19 -1 -35 5 -20
7 -28 15 -25 25 3 8 6 20 6 26 1 7 7 -1 16 -18 l14 -30 -5 29 c-4 16 -12 43
-19 60 -12 30 -13 28 -20 -50z"/>
<path d="M1260 1387 c-14 -6 -47 -22 -75 -35 -48 -23 -60 -24 -263 -24 -226 0
-547 -22 -591 -40 -14 -6 -33 -12 -41 -12 -8 -1 -16 -11 -18 -23 -4 -27 -8
-28 -30 -7 -15 15 -14 18 3 30 10 8 14 14 8 14 -7 0 -15 -5 -18 -10 -4 -7 -14
-6 -28 1 -18 10 -17 7 6 -16 28 -28 31 -36 27 -68 -1 -10 3 -24 8 -30 5 -7 13
-26 16 -43 l7 -31 -62 -7 c-34 -3 -83 -6 -109 -6 l-48 0 -4 -45 c-3 -39 -1
-45 17 -46 17 -1 17 -2 2 -6 -20 -5 -22 -43 -6 -126 13 -64 34 -83 95 -90 37
-3 37 -4 -8 -5 -38 -2 -48 -6 -48 -19 0 -32 42 -104 78 -131 33 -25 42 -27
136 -27 89 0 106 3 145 25 30 17 52 39 68 70 l24 45 122 -3 c189 -4 358 -21
393 -39 32 -17 104 -11 104 8 0 5 25 9 55 8 53 -2 55 -3 64 -35 13 -46 47 -91
83 -110 38 -20 177 -23 230 -5 35 12 68 47 68 73 0 7 6 25 14 40 8 14 17 45
21 67 5 29 12 41 23 41 13 0 14 2 4 9 -17 10 3 16 113 30 146 19 217 22 210
11 -3 -5 -17 -10 -29 -10 -13 0 -37 -3 -53 -6 -30 -6 -30 -6 -22 -55 15 -97
23 -103 115 -97 41 3 51 7 61 29 11 23 37 266 35 332 -1 56 -5 78 -13 83 -5 3
-9 29 -9 58 0 29 -3 73 -6 97 l-6 44 -90 -9 c-62 -7 -99 -6 -119 1 -16 6 -27
8 -25 4 3 -4 -41 -12 -97 -19 -55 -7 -103 -15 -106 -19 -11 -14 -52 -11 -47 4
7 17 -10 17 -18 1 -3 -7 -4 -1 -1 15 5 23 2 27 -16 27 -18 0 -19 -3 -9 -15 6
-8 10 -20 7 -27 -4 -9 -6 -8 -6 2 -1 22 -80 44 -112 32 -13 -6 -43 -15 -66
-21 -41 -11 -41 -12 -40 -54 0 -24 -3 -48 -7 -55 -4 -7 -5 -16 -2 -21 3 -5
-35 -9 -85 -10 -61 -1 -88 2 -84 9 3 6 10 8 15 5 4 -3 10 2 14 10 6 16 -5 20
-18 8 -7 -8 -11 -9 -37 -12 -5 0 -7 -6 -3 -13 5 -8 0 -9 -15 -5 -17 4 -20 3
-11 -8 6 -7 23 -16 38 -19 15 -4 43 -11 62 -15 29 -7 21 -9 -50 -12 -47 -2
-101 -4 -120 -5 -19 -1 -66 -3 -105 -4 -59 -2 -64 -4 -35 -10 27 -6 20 -7 -35
-7 -55 0 -63 1 -35 7 21 4 -20 7 -105 7 -267 1 -394 22 -450 78 -21 21 -32 43
-33 63 -1 28 2 30 45 36 25 3 185 6 354 6 271 0 309 -2 309 -15 0 -9 6 -18 14
-21 18 -7 79 24 71 36 -3 5 3 14 14 19 30 16 40 12 11 -4 -30 -17 -21 -20 14
-4 14 7 24 15 22 18 -2 3 17 7 42 8 26 2 52 9 57 16 6 8 17 16 25 20 12 4 12
6 -2 6 -9 1 -23 -5 -31 -13 -15 -15 -71 -10 -61 6 3 5 15 6 27 3 16 -5 18 -4
8 3 -10 7 -2 15 34 33 58 29 79 51 25 26z m345 -429 c82 -64 87 -242 10 -324
-59 -62 -141 -31 -168 64 -13 42 -18 48 -48 52 -27 4 -30 7 -16 13 10 4 30 7
43 7 13 0 24 5 24 11 0 5 4 8 8 5 26 -16 59 60 36 82 -11 10 -14 5 -20 -23 -3
-19 -10 -38 -15 -41 -5 -3 -7 1 -5 8 50 157 56 167 102 168 12 0 34 -10 49
-22z"/>
<path d="M328 1213 c-46 -7 -30 -52 30 -82 115 -58 363 -51 500 16 32 15 62
27 69 26 7 0 11 4 10 10 -1 6 9 16 23 24 21 11 -24 12 -290 11 -173 0 -327 -3
-342 -5z"/>
</g>
</svg>
