<?xml version="1.0" standalone="no"?>
<!DOCTYPE svg PUBLIC "-//W3C//DTD SVG 20010904//EN"
 "http://www.w3.org/TR/2001/REC-SVG-20010904/DTD/svg10.dtd">
<svg version="1.0" xmlns="http://www.w3.org/2000/svg"
 width="277.000000pt" height="182.000000pt" viewBox="0 0 277.000000 182.000000"
 preserveAspectRatio="xMidYMid meet">
<metadata>
Created by potrace 1.16, written by Peter Selinger 2001-2019
</metadata>
<g transform="translate(0.000000,182.000000) scale(0.100000,-0.100000)"
fill="#000000" stroke="none">
<path d="M1216 1614 c-3 -9 -6 -25 -6 -36 0 -20 -3 -21 -95 -14 -104 7 -99 10
-110 -56 -6 -36 -5 -38 22 -38 46 0 68 -10 78 -33 15 -33 58 -34 83 -2 20 26
22 26 151 24 125 -1 131 -2 146 -25 21 -32 60 -32 81 1 10 15 26 25 40 25 12
0 25 4 29 10 9 14 -15 46 -44 58 l-26 10 25 2 25 2 -25 8 c-14 4 -46 8 -71 9
-30 1 -51 7 -60 18 -27 32 -91 53 -165 53 -56 0 -73 -3 -78 -16z"/>
<path d="M2344 1614 c-18 -15 -18 -15 3 -5 32 16 33 14 16 -20 -16 -32 -16
-32 -32 -11 -16 20 -49 26 -135 23 -27 -1 -28 -2 -13 -24 13 -20 13 -26 1 -42
-11 -15 -17 -16 -26 -7 -24 24 -72 13 -130 -30 -54 -39 -65 -58 -33 -58 7 0
18 -12 24 -27 l11 -28 -5 29 c-5 25 -4 28 14 23 12 -3 24 -1 27 4 9 16 24 10
35 -13 l10 -23 -5 23 c-4 20 0 22 32 22 28 0 45 -8 66 -30 38 -39 101 -42 134
-7 12 13 22 30 22 37 0 11 3 11 12 2 7 -7 27 -12 46 -12 24 0 40 -7 54 -25 27
-34 68 -33 100 3 30 34 57 157 39 175 -8 8 -11 1 -11 -23 0 -19 -5 -42 -10
-50 -7 -11 -10 -2 -10 33 l0 47 -58 0 c-33 0 -81 7 -108 15 -27 8 -49 15 -50
15 0 0 -9 -7 -20 -16z"/>
<path d="M1960 1135 c0 -111 2 -125 17 -125 15 0 14 -2 -3 -16 -10 -8 -13 -12
-5 -8 8 4 37 6 64 5 38 -1 54 -7 64 -21 17 -24 55 -26 77 -5 12 12 45 15 164
15 124 0 151 -3 156 -15 8 -21 52 -19 68 3 7 9 26 17 43 17 20 0 31 5 33 18 3
13 -3 17 -26 17 -16 0 -35 7 -42 15 -8 9 -29 15 -56 15 -43 0 -43 1 -42 33 1
17 1 65 0 105 l-2 72 -255 0 -255 0 0 -125z"/>
<path d="M1036 1160 c-3 -17 -11 -29 -18 -28 -17 4 -23 -79 -8 -97 7 -8 15
-14 18 -13 4 0 24 0 45 -1 30 -1 40 -6 49 -26 18 -39 57 -44 83 -11 l22 27
136 -2 c98 -2 137 -6 137 -15 0 -38 77 -42 87 -4 3 13 14 20 28 20 12 0 28 7
35 15 11 13 9 20 -9 39 -11 12 -18 25 -15 29 8 7 -23 14 -89 20 -34 3 -57 12
-75 30 -48 44 -63 47 -245 47 l-174 0 -7 -30z"/>
<path d="M283 1152 c-39 -15 -74 -30 -78 -34 -12 -12 -8 -70 6 -79 8 -5 25 -9
39 -9 14 0 31 -9 38 -20 14 -24 60 -27 68 -5 5 12 31 15 149 15 114 0 145 -3
155 -15 7 -8 18 -15 26 -15 24 0 82 45 87 67 8 39 -13 53 -93 62 -46 6 -94 19
-124 35 -27 14 -59 26 -70 25 -12 0 1 -7 27 -15 58 -18 57 -38 -1 -42 -40 -3
-43 -2 -48 27 -4 17 -11 31 -16 31 -6 0 -7 -13 -3 -32 6 -26 5 -30 -10 -25 -9
4 -37 7 -61 7 -51 0 -63 25 -16 36 43 9 49 12 22 13 -14 0 -57 -12 -97 -27z"/>
<path d="M1950 604 c-7 -8 -23 -14 -34 -13 -37 2 -44 -1 -49 -21 -4 -16 0 -20
19 -20 14 0 27 -6 30 -14 8 -22 147 -21 165 1 8 9 13 19 12 22 -3 5 14 6 50 2
8 -1 7 -4 -3 -11 -10 -7 3 -9 45 -8 l60 1 -45 7 -45 7 38 1 c21 1 47 7 59 13
17 9 19 8 14 -8 -9 -30 7 -44 48 -40 39 5 54 13 42 24 -4 4 -11 1 -16 -7 -5
-8 -10 -12 -12 -10 -2 3 -16 24 -31 48 -15 23 -32 40 -37 37 -6 -4 -10 -8 -10
-11 0 -3 4 -3 9 1 5 3 12 1 15 -4 3 -5 -29 -9 -75 -10 -73 -1 -81 1 -75 16 6
15 5 15 -13 -1 -11 -10 -28 -16 -38 -13 -15 3 -14 6 7 15 l25 11 -27 -2 c-15
-1 -26 -6 -25 -11 1 -5 -9 -10 -23 -10 -14 -1 -24 4 -23 10 1 6 -5 11 -12 11
-10 0 -12 -4 -5 -12 8 -9 4 -12 -15 -12 -20 0 -23 2 -14 13 6 8 9 14 6 14 -2
0 -10 -7 -17 -16z"/>
<path d="M1345 360 c4 -20 3 -30 -5 -30 -6 0 -8 -4 -5 -10 4 -6 -17 -10 -56
-10 -60 0 -61 1 -57 25 3 14 1 25 -3 25 -5 0 -9 -13 -9 -30 0 -30 -1 -30 -55
-30 -61 0 -68 9 -29 39 15 12 22 21 16 21 -6 0 -25 -15 -42 -32 -29 -31 -32
-32 -44 -15 -24 31 -36 20 -36 -33 0 -38 4 -50 15 -50 8 0 15 -4 15 -10 0 -5
-4 -10 -10 -10 -5 0 -10 -4 -10 -10 0 -5 13 -10 29 -10 24 0 30 -5 34 -30 5
-21 14 -31 32 -36 33 -8 75 10 82 36 5 18 14 20 96 20 86 0 92 -1 112 -26 16
-20 31 -27 60 -28 34 -1 41 3 54 29 9 17 19 32 24 33 13 6 8 30 -8 36 -8 3
-15 16 -15 30 0 31 -8 36 -72 42 -91 9 -98 12 -98 41 0 14 8 32 18 39 15 12
14 13 -11 14 -27 0 -28 -2 -22 -30z"/>
</g>
</svg>
