<?xml version="1.0" standalone="no"?>
<!DOCTYPE svg PUBLIC "-//W3C//DTD SVG 20010904//EN"
 "http://www.w3.org/TR/2001/REC-SVG-20010904/DTD/svg10.dtd">
<svg version="1.0" xmlns="http://www.w3.org/2000/svg"
 width="225.000000pt" height="225.000000pt" viewBox="0 0 225.000000 225.000000"
 preserveAspectRatio="xMidYMid meet">
<metadata>
Created by potrace 1.16, written by Peter Selinger 2001-2019
</metadata>
<g transform="translate(0.000000,225.000000) scale(0.100000,-0.100000)"
fill="#000000" stroke="none">
<path d="M90 2075 l0 -65 65 0 65 0 0 65 0 65 -65 0 -65 0 0 -65z"/>
<path d="M612 2110 c-25 -24 -33 -25 -26 -5 11 28 -34 17 -50 -12 l-14 -28 -7
28 c-12 44 -40 35 -59 -20 -20 -58 -20 -63 -1 -63 9 0 20 10 25 23 l9 22 0
-22 c1 -13 7 -23 15 -23 7 0 21 10 29 23 l16 22 0 -22 c1 -30 31 -31 31 -1 l0
22 16 -22 c19 -28 74 -30 97 -4 26 29 21 47 -14 47 -24 0 -29 -4 -25 -17 2
-11 -1 -18 -11 -18 -9 0 -13 8 -11 23 2 17 11 23 36 25 36 4 41 16 13 32 -29
15 -45 12 -69 -10z"/>
<path d="M1285 1614 c-44 -7 -102 -16 -128 -20 l-48 -7 88 -28 c109 -35 133
-48 133 -70 0 -15 -7 -14 -82 8 -130 38 -275 73 -304 73 -21 0 -25 4 -21 19 4
17 -2 20 -60 27 -38 4 -96 2 -141 -6 -92 -14 -304 -59 -310 -65 -7 -7 61 2 81
10 10 4 28 2 40 -4 l22 -11 -22 6 c-18 4 -23 1 -23 -14 0 -11 -7 -23 -16 -26
-22 -8 -22 -8 -27 12 -4 13 -5 11 -6 -5 -1 -14 -8 -23 -18 -24 -55 -3 -80 -6
-90 -12 -8 -5 -8 1 0 23 8 22 17 30 29 26 10 -2 18 0 18 5 0 5 -8 9 -17 8 -26
0 -131 -37 -113 -38 8 -1 23 -8 33 -15 17 -13 16 -14 -2 -19 -11 -3 -20 -2
-19 2 2 18 -5 16 -34 -10 -24 -23 -33 -27 -39 -17 -14 22 -10 3 7 -30 19 -39
22 -39 189 -7 203 39 325 57 343 50 11 -4 13 -8 5 -13 -15 -9 23 -72 43 -72
19 0 18 56 -1 64 -27 10 -17 36 13 36 40 0 50 -11 57 -60 5 -36 4 -42 -5 -30
-10 13 -11 12 -6 -3 8 -25 -5 -107 -16 -107 -6 0 -7 7 -4 16 3 8 2 12 -4 9 -6
-3 -10 -1 -10 6 0 7 -3 9 -7 6 -9 -9 18 -58 29 -51 15 10 8 -13 -10 -29 -13
-12 -42 -17 -110 -19 -50 -2 -92 -6 -92 -10 0 -3 -17 -5 -38 -3 -20 1 -45 -2
-56 -7 -13 -7 -16 -7 -12 1 9 14 0 14 -24 1 -10 -5 -56 -12 -102 -15 -45 -3
-99 -8 -118 -11 -24 -4 -32 -2 -25 5 6 6 44 15 85 21 86 12 112 26 30 16 -109
-13 -141 -19 -136 -24 12 -11 -18 -32 -48 -33 -26 0 -28 -2 -11 -8 11 -5 24
-6 29 -3 14 8 246 28 246 21 0 -3 -11 -12 -25 -19 -14 -7 -25 -17 -25 -22 0
-16 22 -7 51 21 27 28 35 29 160 40 184 15 200 15 192 -6 -5 -13 -3 -15 13 -9
10 4 31 10 46 13 31 6 30 0 53 198 20 167 23 181 37 167 9 -9 9 -35 0 -100 -7
-49 -12 -126 -12 -171 l0 -81 30 0 c22 0 30 -5 29 -17 0 -11 -3 -13 -6 -5 -2
6 -9 12 -14 12 -4 0 -6 -7 -3 -15 4 -8 1 -15 -5 -15 -17 0 -13 -40 4 -46 22
-9 42 12 49 50 6 30 11 35 44 39 20 4 57 10 82 14 l45 8 0 105 c0 58 4 111 8
118 10 15 -35 34 -72 30 -13 -2 -26 3 -28 10 -3 6 3 12 14 12 15 0 16 2 3 10
-8 5 -11 10 -7 10 7 0 143 -37 210 -56 9 -3 17 -14 17 -24 0 -10 5 -22 10 -25
6 -4 10 10 10 33 0 38 2 40 35 46 20 4 39 4 44 1 6 -3 12 -1 16 5 3 5 15 10
25 10 39 0 28 19 -35 56 -36 22 -65 44 -65 51 0 20 -11 20 -95 7z"/>
<path d="M1387 1143 l-28 -4 3 -120 c2 -65 5 -119 8 -119 6 0 40 -54 40 -63 0
-3 -9 -7 -21 -10 -24 -7 -16 -27 10 -27 25 0 31 -27 31 -152 0 -89 -3 -108
-15 -108 -11 0 -14 9 -11 41 6 62 -12 182 -29 195 -8 6 -15 18 -15 26 0 8 -9
23 -20 33 -16 14 -31 17 -80 12 -33 -3 -72 -13 -86 -22 -32 -21 -72 -104 -80
-168 -7 -52 -1 -49 -116 -64 l-68 -9 0 80 c0 43 -2 77 -4 75 -2 -2 -6 -53 -9
-114 -3 -60 -6 -111 -6 -112 -2 -6 -79 -2 -112 6 -22 5 -43 4 -54 -2 -13 -7
-16 -6 -11 2 4 6 1 11 -6 11 -10 0 -10 2 1 9 11 7 11 9 0 14 -11 3 -9 9 6 21
11 9 16 16 10 15 -5 -1 -24 -1 -41 0 -36 1 -49 27 -28 56 7 10 11 22 7 28 -4
6 -1 7 6 3 7 -5 10 -14 7 -22 -3 -8 -1 -14 4 -14 17 0 11 -28 -7 -33 -10 -3 1
-5 25 -6 30 -1 42 -5 42 -16 0 -11 10 -15 33 -14 30 2 30 2 5 6 -37 6 -35 20
3 25 31 5 31 5 27 -39 -2 -23 0 -43 4 -43 5 0 8 19 8 43 1 23 2 63 4 88 5 69
0 72 -75 59 -35 -6 -75 -14 -89 -17 -44 -10 -103 -7 -364 17 -65 6 -120 9
-123 6 -3 -3 3 -30 12 -60 17 -54 19 -56 54 -57 20 -1 52 -3 71 -6 19 -3 50
-5 68 -5 17 0 32 -3 32 -7 0 -4 6 -8 13 -9 6 0 37 -3 67 -7 30 -3 65 -7 78 -7
12 0 22 -4 22 -8 0 -5 9 -6 20 -3 11 3 17 10 13 16 -3 5 -1 7 5 3 6 -3 13 -2
17 4 3 5 15 10 26 10 14 0 19 -7 19 -25 0 -18 -5 -25 -19 -25 -25 0 -38 20
-14 21 13 0 14 2 4 6 -8 3 -23 -5 -33 -18 -11 -13 -17 -18 -13 -11 3 6 1 12
-4 12 -6 0 -11 -3 -11 -8 0 -4 -51 0 -113 8 -125 18 -128 17 -107 -45 48 -145
235 -172 317 -45 35 53 43 61 61 56 9 -2 42 -7 72 -11 l55 -6 -3 -43 c-4 -40
-2 -44 22 -50 14 -3 37 -4 50 0 21 5 26 1 36 -30 6 -19 29 -51 52 -71 40 -37
41 -37 115 -33 73 3 76 5 113 45 37 39 70 118 70 167 0 37 14 45 115 60 151
24 155 25 155 46 0 24 8 29 65 37 43 5 47 4 43 -13 -2 -11 -13 -20 -28 -22
-38 -5 -43 -17 -26 -51 29 -55 104 -79 191 -61 49 10 58 16 74 48 17 33 19 34
25 14 6 -17 15 -22 41 -22 45 0 64 28 78 120 6 38 14 70 19 70 4 0 8 5 8 10 0
6 -6 10 -13 10 -9 0 -12 10 -9 30 2 16 -4 51 -13 77 l-17 48 -94 0 c-57 0 -93
-4 -92 -10 1 -5 -4 -22 -10 -37 -7 -16 -17 -40 -22 -54 -6 -15 -13 -25 -16
-22 -2 3 5 27 16 53 23 53 20 86 -4 66 -11 -9 -16 -9 -21 0 -6 8 -10 8 -15 -2
-7 -10 -11 -10 -24 0 -11 9 -16 10 -16 2 0 -6 -7 -11 -15 -11 -8 0 -15 5 -15
11 0 8 -4 8 -12 1 -7 -5 -32 -9 -55 -7 -24 1 -43 -2 -43 -6 0 -5 -7 -9 -16 -9
-8 0 -12 5 -9 10 3 6 -1 10 -9 10 -9 0 -16 -4 -16 -10 0 -14 -37 -13 -46 2 -5
7 -3 8 7 3 11 -7 12 -6 3 6 -7 8 -12 63 -12 138 -1 68 -3 125 -4 126 -7 6 -96
11 -121 8z m-129 -540 c35 -31 51 -83 25 -83 -9 0 -13 6 -9 15 3 8 1 15 -3 15
-5 0 -17 3 -27 7 -11 4 -15 3 -11 -4 4 -6 -2 -13 -13 -16 -11 -3 -20 0 -20 6
0 6 -3 7 -7 4 -3 -4 2 -16 12 -27 16 -17 16 -20 2 -20 -9 0 -19 -5 -23 -12 -4
-6 -3 -8 3 -5 6 4 16 0 23 -8 10 -12 9 -15 -6 -16 -11 -1 -3 -6 16 -12 19 -6
39 -16 43 -21 5 -6 6 1 3 17 -6 27 8 39 17 15 7 -21 -13 -51 -26 -40 -7 5 -29
12 -49 16 -30 5 -39 12 -45 34 -6 24 -7 25 -15 7 -5 -13 -7 -2 -5 32 4 54 44
123 70 123 7 0 27 -12 45 -27z"/>
<path d="M258 1003 c-98 -3 -108 -5 -108 -23 0 -28 17 -34 100 -38 41 -2 76
-4 77 -6 1 -1 0 -12 -3 -24 -6 -20 -10 -21 -85 -15 -56 4 -79 3 -79 -6 0 -7
21 -11 58 -12 31 -1 68 -5 82 -10 17 -6 -3 -7 -60 -4 -81 4 -84 3 -57 -11 17
-9 58 -16 105 -17 42 -1 69 -3 60 -5 -33 -7 -18 -17 19 -14 21 2 90 5 153 8
127 6 156 15 163 51 l4 24 -133 -7 -134 -7 0 32 c0 17 -5 31 -11 31 -7 0 -8
-11 -4 -29 7 -34 -12 -71 -37 -71 -20 0 -23 4 -32 45 -5 20 -4 27 2 20 6 -5
12 -19 14 -29 4 -24 28 -34 28 -12 0 9 4 16 8 16 5 0 9 7 9 15 0 10 -10 15
-30 15 -21 0 -28 4 -24 14 3 8 1 17 -6 20 -7 2 12 5 41 5 33 1 52 -3 52 -11 0
-18 223 -3 255 18 23 15 25 15 25 -2 0 -9 2 -15 5 -12 4 3 3 17 -1 32 l-6 26
-172 -2 c-94 -1 -219 -4 -278 -5z"/>
<path d="M898 815 c-5 -5 -170 -34 -195 -35 -6 0 -14 8 -16 18 -4 15 -5 15 -6
-1 -1 -18 -12 -19 -218 -14 -120 3 -235 9 -255 12 -37 7 -37 7 -25 -18 7 -15
21 -28 32 -31 55 -14 214 -26 342 -26 125 0 143 2 152 18 6 11 36 23 83 34 63
14 74 14 81 2 12 -21 24 -17 23 9 -1 18 6 23 39 28 l40 6 -36 2 c-20 0 -38 -1
-41 -4z"/>
</g>
</svg>
